<svg width="257" height="71" viewBox="0 0 257 71" fill="none" xmlns="http://www.w3.org/2000/svg">
<path d="M13.84 24.552C14.288 24.552 14.672 24.52 14.992 24.456C15.312 24.392 15.664 24.328 16.048 24.264C16.432 24.136 16.88 24.008 17.392 23.88C17.968 23.688 18.704 23.496 19.6 23.304L22.096 22.728H22.864L24.496 22.344H27.856C28.176 22.344 28.56 22.408 29.008 22.536C29.456 22.664 29.936 22.792 30.448 22.92L31.216 23.112V23.976L30.64 24.744L31.216 25.128C30.32 25.128 29.36 25.288 28.336 25.608C27.312 25.864 26.256 26.184 25.168 26.568C24.144 26.952 23.152 27.304 22.192 27.624C21.232 27.88 20.368 28.008 19.6 28.008C19.472 28.008 19.216 28.104 18.832 28.296C18.512 28.488 18.128 28.712 17.68 28.968C17.296 29.16 16.912 29.384 16.528 29.64C16.144 29.896 15.856 30.088 15.664 30.216L14.704 30.888L14.32 31.752L13.072 32.52L12.784 32.904C12.784 33.16 12.72 33.512 12.592 33.96C12.464 34.344 12.4 34.664 12.4 34.92C12.4 34.984 12.432 35.048 12.496 35.112C12.56 35.176 12.592 35.272 12.592 35.4C12.592 35.72 12.528 35.976 12.4 36.168C12.336 36.36 12.24 36.552 12.112 36.744C11.984 36.936 11.856 37.128 11.728 37.32C11.664 37.512 11.632 37.8 11.632 38.184L11.44 40.296C11.184 40.808 10.864 41.48 10.48 42.312C10.16 43.144 10 43.976 10 44.808C10 45.128 10.128 45.32 10.384 45.384L9.424 46.344V45.768C9.296 45.768 9.136 45.96 8.944 46.344C8.752 46.728 8.656 46.984 8.656 47.112V47.304C8.656 47.432 8.656 47.592 8.656 47.784C8.72 47.976 8.752 48.136 8.752 48.264C8.368 48.264 8.08 48.424 7.888 48.744C7.696 49.064 7.344 49.224 6.832 49.224C6.832 49.096 6.8 48.968 6.736 48.84C6.672 48.776 6.64 48.648 6.64 48.456H6.16V48.648C6.16 48.904 6.224 49.096 6.352 49.224H6.16L6.064 50.184L4.336 50.376L3.856 50.184L4.144 50.088C3.76 50.088 3.568 49.928 3.568 49.608L2.704 49.416C2.704 49.224 2.736 49.096 2.8 49.032C2.864 48.968 2.896 48.84 2.896 48.648L2.32 48.84C2.256 48.84 2 48.552 1.552 47.976C1.168 47.4 0.976 46.696 0.976 45.864L1.168 44.904L1.072 43.56L1.264 43.08H0.88C0.88 42.76 1.008 42.376 1.264 41.928C1.584 41.48 1.744 41 1.744 40.488V40.104L1.264 40.296C1.52 39.784 1.712 39.016 1.84 37.992C1.968 36.968 2.096 36.168 2.224 35.592V34.248C2.224 33.864 2.32 33.64 2.512 33.576C2.704 33.448 2.864 33.288 2.992 33.096L2.8 32.04C2.8 31.272 2.96 30.568 3.28 29.928C3.6 29.288 3.76 28.488 3.76 27.528L3.664 26.856L3.76 25.224C4.016 25.224 4.144 25.064 4.144 24.744C4.208 24.424 4.24 24.2 4.24 24.072L3.952 23.496V21.96C4.464 21.576 4.72 21.032 4.72 20.328C4.784 19.624 5.008 19.112 5.392 18.792V18.984C5.776 18.984 6.16 18.888 6.544 18.696C6.992 18.44 7.216 18.088 7.216 17.64L6.16 18.024L6.832 16.776C6.576 16.776 6.32 16.968 6.064 17.352C5.808 17.672 5.584 17.896 5.392 18.024V17.736C5.392 17.608 5.52 17.288 5.776 16.776C6.032 16.264 6.16 15.88 6.16 15.624L7.12 10.44V9.576L6.736 9.096L4.144 7.08L3.856 6.792C3.728 6.408 3.664 6.216 3.664 6.216C3.664 6.088 3.728 5.928 3.856 5.736C3.984 5.544 4.208 5.448 4.528 5.448H10.864C10.992 5.448 11.248 5.448 11.632 5.448C12.016 5.384 12.432 5.32 12.88 5.256L14.608 4.968H17.488L20.464 4.488C20.656 4.488 21.04 4.52 21.616 4.584C22.192 4.584 22.8 4.616 23.44 4.68L27.184 4.872L30.928 5.736L31.504 5.928C31.888 6.056 32.112 6.12 32.176 6.12L31.888 6.504L32.176 7.08V7.848L31.312 8.04L32.08 8.424L31.312 9.096H28.816C28.112 9.096 27.44 9.128 26.8 9.192C26.224 9.192 25.776 9.256 25.456 9.384L22.096 8.712L20.848 9.576L17.488 10.056C17.36 10.056 17.104 10.12 16.72 10.248L16.336 10.44V12.168L15.472 13.8C15.344 13.928 15.184 14.344 14.992 15.048C14.864 15.688 14.704 16.456 14.512 17.352C14.32 18.184 14.16 19.08 14.032 20.04C13.904 20.936 13.84 21.768 13.84 22.536V24.552ZM36.3955 34.728C36.3955 34.6 36.4275 34.504 36.4915 34.44C36.5555 34.312 36.6195 34.184 36.6835 34.056L36.9715 33.768C36.9715 32.872 37.2595 31.752 37.8355 30.408C38.4755 29.064 39.1795 28.136 39.9475 27.624L40.7155 27.24C40.8435 27.176 40.9075 27.048 40.9075 26.856C40.9075 26.6 40.9395 26.408 41.0035 26.28L41.3875 25.8C41.8995 25.096 42.4755 24.392 43.1155 23.688C43.7555 22.92 44.3635 22.248 44.9395 21.672C45.5795 21.096 46.1555 20.648 46.6675 20.328C47.1795 19.944 47.6275 19.752 48.0115 19.752C48.1395 19.752 48.2355 19.784 48.2995 19.848C48.4275 19.912 48.7155 20.008 49.1635 20.136L50.2195 21.48C50.4755 21.544 50.6995 21.8 50.8915 22.248L51.1795 22.92V24.456L51.4675 24.84C51.5955 24.968 51.6915 25.096 51.7555 25.224C51.8195 25.288 51.9155 25.352 52.0435 25.416L53.1955 26.184C53.2595 26.44 53.4515 26.76 53.7715 27.144C54.0915 27.528 54.4115 27.912 54.7315 28.296L56.0755 29.832C56.2035 30.024 56.3315 30.376 56.4595 30.888C56.5875 31.4 56.6835 31.944 56.7475 32.52C56.8755 33.096 56.9715 33.64 57.0355 34.152C57.0995 34.6 57.1315 34.92 57.1315 35.112V35.88L56.2675 37.896L56.1715 38.664L55.2115 39.72L53.7715 40.872C53.4515 41.064 53.0355 41.16 52.5235 41.16C52.0115 41.16 51.5635 41.32 51.1795 41.64L50.4115 41.928C50.0275 42.184 49.7075 42.312 49.4515 42.312C49.3875 42.312 49.3235 42.312 49.2595 42.312C49.2595 42.248 49.2275 42.216 49.1635 42.216L48.0115 42.408C47.7555 42.6 47.2115 42.696 46.3795 42.696C45.9315 42.696 45.5795 42.664 45.3235 42.6L43.1155 42.024L40.9075 41.256C40.0115 41 39.3075 40.776 38.7955 40.584C38.3475 40.392 37.8355 39.752 37.2595 38.664C37.1315 38.344 37.0035 38.024 36.8755 37.704C36.7475 37.384 36.6195 37.128 36.4915 36.936L36.1075 35.4L36.3955 34.728ZM44.2675 37.992L44.7475 38.088C45.2595 37.96 45.8675 37.864 46.5715 37.8C47.2755 37.672 47.7875 37.512 48.1075 37.32L49.0675 36.648L49.8355 35.784L50.1235 34.92L48.9715 30.504L47.3395 29.832L47.0515 30.024C46.9235 30.088 46.7315 30.344 46.4755 30.792C46.2195 31.176 45.9315 31.656 45.6115 32.232C45.3555 32.808 45.0675 33.416 44.7475 34.056C44.4915 34.696 44.2995 35.24 44.1715 35.688L44.2675 37.992ZM40.7155 29.544C40.3955 29.864 40.0115 30.44 39.5635 31.272C39.1155 32.104 38.8915 32.84 38.8915 33.48C38.8915 33.736 38.9235 33.928 38.9875 34.056L39.1795 33.576L40.7155 30.792C40.9715 30.408 41.1315 30.12 41.1955 29.928L40.7155 29.544ZM61.2393 34.728C61.2393 34.6 61.2713 34.504 61.3353 34.44C61.3993 34.312 61.4633 34.184 61.5273 34.056L61.8153 33.768C61.8153 32.872 62.1033 31.752 62.6793 30.408C63.3193 29.064 64.0233 28.136 64.7913 27.624L65.5593 27.24C65.6873 27.176 65.7513 27.048 65.7513 26.856C65.7513 26.6 65.7833 26.408 65.8473 26.28L66.2313 25.8C66.7433 25.096 67.3193 24.392 67.9593 23.688C68.5993 22.92 69.2073 22.248 69.7833 21.672C70.4233 21.096 70.9993 20.648 71.5113 20.328C72.0233 19.944 72.4713 19.752 72.8553 19.752C72.9833 19.752 73.0793 19.784 73.1432 19.848C73.2713 19.912 73.5593 20.008 74.0073 20.136L75.0633 21.48C75.3193 21.544 75.5433 21.8 75.7353 22.248L76.0233 22.92V24.456L76.3113 24.84C76.4393 24.968 76.5353 25.096 76.5993 25.224C76.6633 25.288 76.7593 25.352 76.8873 25.416L78.0393 26.184C78.1033 26.44 78.2953 26.76 78.6153 27.144C78.9353 27.528 79.2553 27.912 79.5753 28.296L80.9193 29.832C81.0473 30.024 81.1753 30.376 81.3033 30.888C81.4313 31.4 81.5273 31.944 81.5913 32.52C81.7193 33.096 81.8153 33.64 81.8793 34.152C81.9433 34.6 81.9753 34.92 81.9753 35.112V35.88L81.1113 37.896L81.0153 38.664L80.0553 39.72L78.6153 40.872C78.2953 41.064 77.8793 41.16 77.3673 41.16C76.8553 41.16 76.4073 41.32 76.0233 41.64L75.2553 41.928C74.8713 42.184 74.5513 42.312 74.2953 42.312C74.2313 42.312 74.1673 42.312 74.1033 42.312C74.1033 42.248 74.0713 42.216 74.0073 42.216L72.8553 42.408C72.5993 42.6 72.0553 42.696 71.2233 42.696C70.7753 42.696 70.4233 42.664 70.1673 42.6L67.9593 42.024L65.7513 41.256C64.8553 41 64.1513 40.776 63.6393 40.584C63.1913 40.392 62.6793 39.752 62.1033 38.664C61.9753 38.344 61.8473 38.024 61.7193 37.704C61.5913 37.384 61.4633 37.128 61.3353 36.936L60.9513 35.4L61.2393 34.728ZM69.1113 37.992L69.5913 38.088C70.1033 37.96 70.7113 37.864 71.4153 37.8C72.1193 37.672 72.6313 37.512 72.9513 37.32L73.9113 36.648L74.6793 35.784L74.9673 34.92L73.8153 30.504L72.1833 29.832L71.8953 30.024C71.7673 30.088 71.5753 30.344 71.3193 30.792C71.0633 31.176 70.7753 31.656 70.4553 32.232C70.1993 32.808 69.9113 33.416 69.5913 34.056C69.3353 34.696 69.1433 35.24 69.0153 35.688L69.1113 37.992ZM65.5593 29.544C65.2393 29.864 64.8553 30.44 64.4073 31.272C63.9593 32.104 63.7353 32.84 63.7353 33.48C63.7353 33.736 63.7673 33.928 63.8313 34.056L64.0233 33.576L65.5593 30.792C65.8153 30.408 65.9753 30.12 66.0393 29.928L65.5593 29.544ZM102.595 44.904C101.699 45.288 100.611 45.608 99.331 45.864C98.051 46.12 96.899 46.248 95.875 46.248C95.299 46.248 94.499 46.184 93.475 46.056C92.515 45.928 91.523 45.704 90.499 45.384C89.539 45.064 88.675 44.68 87.907 44.232C87.203 43.784 86.851 43.208 86.851 42.504C86.851 42.248 86.819 41.992 86.755 41.736C86.755 41.416 86.755 41.128 86.755 40.872C86.883 39.08 86.979 37.736 87.043 36.84C87.171 35.944 87.299 35.24 87.427 34.728C87.619 34.216 87.811 33.768 88.003 33.384C88.259 32.936 88.579 32.264 88.963 31.368C88.963 31.304 89.027 31.24 89.155 31.176C89.347 31.048 89.507 30.92 89.635 30.792L90.307 30.504H90.787C90.787 30.76 90.723 30.952 90.595 31.08C90.531 31.144 90.499 31.272 90.499 31.464V31.656C90.755 31.528 90.947 31.336 91.075 31.08C91.267 30.824 91.459 30.568 91.651 30.312L96.067 26.568H94.531C94.787 26.312 95.203 26.056 95.779 25.8C96.355 25.544 96.963 25.288 97.603 25.032C98.307 24.712 98.947 24.424 99.523 24.168C100.099 23.912 100.483 23.688 100.675 23.496C101.571 22.792 102.403 22.312 103.171 22.056C104.003 21.8 104.835 21.288 105.667 20.52C105.859 19.368 106.051 18.12 106.243 16.776C106.435 15.432 106.659 14.088 106.915 12.744C107.171 11.336 107.459 9.992 107.779 8.712C108.163 7.368 108.547 6.12 108.931 4.968C109.059 4.776 109.283 4.68 109.603 4.68C109.923 4.616 110.179 4.584 110.371 4.584C110.499 4.584 110.627 4.616 110.755 4.68C110.883 4.744 111.011 4.776 111.139 4.776L112.003 4.584H112.195C112.643 4.584 113.187 4.712 113.827 4.968C114.467 5.224 115.075 5.544 115.651 5.928C116.227 6.248 116.707 6.6 117.091 6.984C117.539 7.368 117.763 7.688 117.763 7.944C117.763 8.2 117.667 8.392 117.475 8.52L117.763 8.712C117.699 8.712 117.539 8.808 117.283 9C117.091 9.192 116.867 9.448 116.611 9.768C116.355 10.024 116.131 10.312 115.939 10.632C115.747 10.888 115.651 11.112 115.651 11.304C115.651 11.752 115.555 12.36 115.363 13.128C115.171 13.896 114.947 14.696 114.691 15.528C114.499 16.296 114.307 17 114.115 17.64C113.923 18.28 113.827 18.696 113.827 18.888L114.115 19.368C114.115 19.816 113.987 20.328 113.731 20.904C113.539 21.416 113.443 21.928 113.443 22.44C113.443 22.568 113.379 22.728 113.251 22.92C113.187 23.112 113.091 23.464 112.963 23.976C112.835 24.488 112.643 25.224 112.387 26.184C112.195 27.08 111.971 28.36 111.715 30.024C111.459 30.344 111.331 30.952 111.331 31.848C111.395 32.68 111.363 33.32 111.235 33.768L111.043 34.44C111.043 34.568 111.075 34.824 111.139 35.208C111.203 35.528 111.235 35.848 111.235 36.168C111.043 36.168 110.883 36.296 110.755 36.552C110.627 36.744 110.563 36.968 110.563 37.224V37.8L110.947 36.648C111.011 36.904 111.075 37.192 111.139 37.512C111.203 37.832 111.235 38.056 111.235 38.184L111.043 38.856V39.624C111.043 39.752 111.011 39.848 110.947 39.912C110.947 39.976 110.947 40.04 110.947 40.104V40.296H110.563V41.352H111.043L111.235 41.832L111.043 42.984L111.235 43.176C111.235 43.24 111.267 43.432 111.331 43.752C111.395 44.008 111.427 44.2 111.427 44.328L111.235 44.52V45.288L109.411 46.152L105.187 46.824C104.611 46.824 104.099 46.504 103.651 45.864C103.267 45.224 102.979 44.904 102.787 44.904H102.595ZM93.763 40.488C94.147 40.68 94.691 40.84 95.395 40.968C96.099 41.032 96.803 41.096 97.507 41.16C98.275 41.16 98.979 41.192 99.619 41.256C100.323 41.32 100.899 41.416 101.347 41.544C101.411 41.544 101.571 41.64 101.827 41.832C102.147 41.96 102.371 42.024 102.499 42.024C102.563 42.024 102.595 41.864 102.595 41.544V40.68C102.595 40.488 102.659 40.04 102.787 39.336C102.915 38.568 102.979 37.608 102.979 36.456V35.688H102.883C102.883 35.496 102.915 35.336 102.979 35.208C103.043 35.08 103.075 34.888 103.075 34.632V31.848L103.363 31.464V28.968C103.171 28.968 102.691 29.128 101.923 29.448C101.155 29.768 100.323 30.152 99.427 30.6C98.595 30.984 97.827 31.368 97.123 31.752C96.419 32.072 96.035 32.264 95.971 32.328C95.139 33.416 94.595 34.376 94.339 35.208C94.083 35.976 93.891 36.648 93.763 37.224V37.704C93.763 37.832 93.763 37.96 93.763 38.088C93.827 38.216 93.859 38.312 93.859 38.376L94.051 39.144C94.051 39.208 93.987 39.432 93.859 39.816C93.795 40.136 93.763 40.36 93.763 40.488ZM93.379 27.528C93.379 27.656 93.187 27.944 92.803 28.392C92.419 28.776 92.163 29.032 92.035 29.16V28.872C92.035 28.488 92.163 28.168 92.419 27.912C92.739 27.656 93.059 27.528 93.379 27.528ZM91.651 29.064C91.651 29.192 91.587 29.416 91.459 29.736C91.331 30.056 91.139 30.216 90.883 30.216V29.448L91.555 28.584L91.651 29.064ZM94.243 26.472C94.307 26.472 94.339 26.536 94.339 26.664C94.339 26.856 94.275 27.08 94.147 27.336C94.019 27.592 93.859 27.72 93.667 27.72C93.603 27.72 93.571 27.688 93.571 27.624C93.571 27.496 93.635 27.272 93.763 26.952C93.955 26.632 94.115 26.472 94.243 26.472ZM147.138 49.704C147.714 48.104 148.258 46.6 148.77 45.192C149.346 43.848 149.762 43.176 150.018 43.176C150.146 43.176 150.242 43.144 150.306 43.08C150.178 43.08 150.05 43.016 149.922 42.888C149.922 42.696 149.986 42.568 150.114 42.504C150.306 42.376 150.402 42.184 150.402 41.928V41.736L150.114 41.928C150.114 41.608 150.178 41.448 150.306 41.448C150.498 41.448 150.594 41.352 150.594 41.16H150.402C150.402 40.84 150.498 40.584 150.69 40.392C150.946 40.2 151.106 39.912 151.17 39.528L151.266 38.952L152.706 33.768L152.609 33.672C152.546 33.672 152.482 33.672 152.418 33.672C152.354 33.608 152.29 33.576 152.226 33.576H150.786C150.594 33.512 150.274 33.416 149.826 33.288C149.378 33.096 148.93 32.904 148.482 32.712C148.034 32.52 147.65 32.296 147.33 32.04C147.01 31.784 146.85 31.56 146.85 31.368C146.85 31.048 146.914 30.888 147.042 30.888C147.234 30.888 147.49 30.824 147.81 30.696C147.17 30.44 146.85 29.928 146.85 29.16H147.426C147.49 29.16 147.682 29.16 148.002 29.16C148.322 29.096 148.642 29.064 148.962 29.064C149.282 29.064 149.57 29.064 149.826 29.064C150.146 29 150.338 28.968 150.402 28.968H151.746C151.81 28.968 152.002 28.968 152.322 28.968C152.706 28.968 153.122 28.968 153.57 28.968C154.018 28.904 154.402 28.808 154.722 28.68C155.106 28.552 155.298 28.36 155.298 28.104V27.912L156.258 25.32L157.218 23.976L157.41 22.248L157.89 22.344L158.082 20.616L160.098 18.12L159.234 17.448L160.194 15.528C160.258 15.528 160.418 15.208 160.674 14.568C160.93 13.928 161.218 13.16 161.538 12.264C161.922 11.368 162.274 10.44 162.594 9.48C162.978 8.456 163.266 7.592 163.458 6.888L163.938 5.832C163.874 5.768 163.842 5.736 163.842 5.736C163.842 5.608 163.874 5.416 163.938 5.16C164.066 4.904 164.29 4.52 164.609 4.008C164.674 3.88 164.738 3.656 164.802 3.336C164.93 2.952 165.058 2.568 165.186 2.184C165.314 1.736 165.442 1.352 165.57 1.032C165.762 0.647998 165.986 0.391998 166.242 0.263998L166.722 0.551997C166.658 0.551997 166.754 0.551997 167.01 0.551997C167.266 0.487998 167.522 0.391998 167.778 0.263998C168.418 0.839998 168.994 1.256 169.506 1.512C170.018 1.704 170.466 1.864 170.85 1.992C171.298 2.12 171.682 2.28 172.002 2.472C172.322 2.664 172.578 3.016 172.77 3.528C172.77 3.656 172.866 4.04 173.058 4.68C173.314 5.32 173.442 5.768 173.442 6.024V6.12C174.53 7.016 175.426 8.136 176.13 9.48C176.898 10.824 177.282 11.976 177.282 12.936L177.186 13.512L178.914 19.944V21.384C179.298 21.384 179.49 21.48 179.49 21.672C179.362 21.8 179.298 21.96 179.298 22.152L179.106 22.536L179.298 22.728V25.224H179.49C179.49 25.352 179.458 25.48 179.394 25.608C179.33 25.736 179.298 25.864 179.298 25.992L179.682 26.376C179.618 26.632 179.586 26.984 179.586 27.432C179.586 27.88 179.618 28.296 179.682 28.68C179.746 29 179.842 29.352 179.97 29.736C179.778 29.864 179.682 30.184 179.682 30.696C179.682 30.888 179.714 31.016 179.778 31.08C179.842 31.08 179.874 31.144 179.874 31.272C179.874 31.464 179.842 31.624 179.778 31.752L180.258 31.56L179.97 31.944L180.258 32.328L179.97 33.192C179.97 33.448 180.066 33.672 180.258 33.864C180.514 34.056 180.642 34.312 180.642 34.632C180.514 34.632 180.45 34.696 180.45 34.824V34.92C180.45 35.112 180.482 35.24 180.546 35.304C180.61 35.304 180.642 35.368 180.642 35.496L180.45 35.88C180.45 36.584 180.482 37 180.546 37.128C180.61 37.256 180.802 37.576 181.122 38.088V38.472V40.872C181.25 41 181.346 41.096 181.41 41.16C181.538 41.16 181.602 41.224 181.602 41.352C181.602 41.416 181.57 41.48 181.506 41.544L181.698 41.832C181.698 42.152 181.73 42.472 181.794 42.792C181.922 43.048 181.986 43.24 181.986 43.368C181.986 43.816 181.826 44.136 181.506 44.328C181.25 44.456 181.122 44.712 181.122 45.096C181.058 45.096 180.994 45 180.93 44.808C180.93 44.616 180.802 44.52 180.546 44.52C180.546 44.84 180.514 45 180.45 45C180.45 45.064 180.322 45.096 180.066 45.096H179.586C179.458 45.096 179.33 44.968 179.202 44.712C179.138 44.456 179.042 44.328 178.914 44.328H177.282C177.026 44.328 176.898 44.296 176.898 44.232C176.898 44.104 176.834 44.04 176.706 44.04C176.45 44.04 176.258 44.136 176.13 44.328C176.002 44.456 175.778 44.52 175.458 44.52C174.306 44.264 173.73 43.528 173.73 42.312C173.73 42.184 173.762 42.088 173.826 42.024C173.954 41.896 174.018 41.8 174.018 41.736C174.018 40.904 173.922 40.2 173.73 39.624C173.538 38.984 173.442 38.28 173.442 37.512C173.634 37.512 173.762 37.576 173.826 37.704C173.89 37.768 173.986 37.864 174.114 37.992C173.986 37.992 173.922 38.152 173.922 38.472C173.922 38.728 174.146 38.92 174.594 39.048C174.594 38.92 174.562 38.856 174.498 38.856C174.498 38.856 174.498 38.824 174.498 38.76C174.498 38.696 174.498 38.664 174.498 38.664C174.562 38.6 174.594 38.536 174.594 38.472C174.53 38.28 174.498 38.056 174.498 37.8C174.498 37.48 174.466 37.16 174.402 36.84L174.21 35.688L174.018 35.4L173.922 36.264L173.73 35.784L173.346 37.032C173.346 36.84 173.314 36.584 173.25 36.264C173.25 35.88 173.25 35.496 173.25 35.112V33.576C173.186 33.448 172.962 33.352 172.578 33.288C172.258 33.16 171.874 33.096 171.426 33.096C171.042 33.032 170.658 33 170.274 33C169.89 33 169.602 33 169.41 33C169.09 33 168.834 33.032 168.642 33.096C168.45 33.16 168.194 33.192 167.874 33.192C167.49 33.192 167.074 33.16 166.626 33.096C166.178 32.968 165.858 32.904 165.666 32.904H164.706C164.322 32.904 164.034 33.064 163.842 33.384C163.714 33.704 163.618 34.088 163.554 34.536C163.49 34.92 163.458 35.304 163.458 35.688C163.458 36.072 163.426 36.328 163.362 36.456L162.978 37.224L163.554 37.416L163.362 37.704H162.402C162.402 38.152 162.242 38.696 161.922 39.336C161.602 39.976 161.314 40.488 161.058 40.872L160.866 41.16C160.866 41.224 160.834 41.288 160.77 41.352C160.77 41.416 160.77 41.48 160.77 41.544V41.736C160.77 41.928 160.866 42.12 161.058 42.312C160.738 42.632 160.45 43.08 160.194 43.656C159.938 44.168 159.746 44.68 159.618 45.192V46.056C159.362 46.76 159.042 47.496 158.658 48.264C158.274 49.096 158.082 49.8 158.082 50.376H158.658C158.53 50.568 158.37 50.664 158.178 50.664C157.986 50.664 157.89 50.792 157.89 51.048H157.986C158.114 51.048 158.178 51.176 158.178 51.432C158.178 51.816 158.05 52.104 157.794 52.296C157.602 52.552 157.378 52.776 157.122 52.968C156.93 53.224 156.706 53.512 156.45 53.832C156.258 54.152 156.162 54.6 156.162 55.176L156.45 55.368C156.45 55.56 156.258 55.944 155.874 56.52C155.49 57.096 155.234 57.544 155.106 57.864C155.106 58.056 154.914 58.184 154.53 58.248C154.53 58.44 154.594 58.536 154.722 58.536C154.85 58.536 154.978 58.568 155.106 58.632C154.978 58.888 154.85 59.08 154.722 59.208C154.594 59.336 154.53 59.528 154.53 59.784L155.106 59.592C155.106 59.848 155.042 60.008 154.914 60.072C154.85 60.136 154.818 60.264 154.818 60.456V60.552L153.762 63.144H154.049L153.666 66.024C153.474 66.28 153.378 66.472 153.378 66.6C153.378 66.792 153.314 67.048 153.186 67.368L153.282 67.464C153.282 67.592 153.122 67.688 152.802 67.752C152.546 67.816 152.258 68.008 151.938 68.328C151.81 68.328 151.65 68.232 151.458 68.04C151.33 67.848 151.266 67.688 151.266 67.56C151.266 67.496 151.298 67.432 151.362 67.368C151.042 67.176 150.882 67.048 150.882 66.984C150.882 66.92 150.754 66.888 150.498 66.888L150.21 67.272C150.082 67.656 150.018 67.816 150.018 67.752L147.906 67.464L149.73 66.888C149.602 66.824 149.218 66.76 148.578 66.696C148.002 66.696 147.618 66.696 147.426 66.696C147.298 66.824 147.234 66.92 147.234 66.984C147.234 67.048 147.138 67.08 146.946 67.08V66.408C146.882 66.472 146.818 66.504 146.754 66.504C146.626 66.504 146.402 66.44 146.082 66.312C145.762 66.248 145.474 66.216 145.218 66.216V65.736C144.77 65.736 144.418 65.832 144.162 66.024C143.842 65.704 143.554 65.288 143.298 64.776C143.106 64.328 142.946 64.04 142.818 63.912C143.266 63.656 143.49 63.336 143.49 62.952C143.554 62.568 143.586 62.12 143.586 61.608H143.874L144.354 62.568C144.482 61.736 144.674 60.84 144.93 59.88C145.25 58.92 145.41 58.088 145.41 57.384V56.328L145.698 55.176C145.954 54.664 146.146 54.28 146.273 54.024C146.402 53.768 146.53 53.416 146.658 52.968L146.946 52.584H148.002L149.538 52.104V52.584L148.962 53.64V54.696L149.634 55.272C149.634 54.952 149.794 54.568 150.114 54.12C150.498 53.736 150.69 53.416 150.69 53.16V51.624C150.69 51.432 150.594 51.272 150.402 51.144C150.274 51.08 150.146 51.048 150.018 51.048H149.538L148.962 51.624H147.426L147.138 49.704ZM166.434 27.912H167.682C167.938 27.912 168.322 27.912 168.834 27.912C169.41 27.912 169.954 27.88 170.466 27.816C171.042 27.688 171.522 27.528 171.906 27.336C172.29 27.144 172.482 26.888 172.482 26.568H172.098V25.224C172.034 25.224 172.002 25.192 172.002 25.128V24.552H171.81C171.81 24.424 171.842 24.328 171.906 24.264C171.97 24.2 172.002 24.104 172.002 23.976V23.784L171.522 23.688C171.714 23.688 171.874 23.624 172.002 23.496L171.81 22.728V22.536C171.81 22.408 171.842 22.344 171.906 22.344C171.97 22.28 172.002 22.152 172.002 21.96C172.002 21.576 171.874 21.192 171.618 20.808C171.426 20.424 171.33 20.072 171.33 19.752L171.522 19.08L170.466 16.488V16.296C170.466 16.168 170.402 15.976 170.274 15.72C170.146 15.464 170.082 15.304 170.082 15.24C169.506 16.904 168.866 18.824 168.161 21C167.458 23.112 166.754 24.968 166.05 26.568L165.858 27.72L166.434 27.912ZM147.81 57.384C147.81 57.512 147.746 57.832 147.618 58.344L147.426 58.92V61.608L148.002 61.128C148.002 60.808 148.034 60.52 148.098 60.264C148.226 60.008 148.29 59.752 148.29 59.496V56.808L147.81 57.384ZM146.466 57.576C146.338 57.896 146.21 58.216 146.082 58.536C145.954 58.856 145.89 59.176 145.89 59.496V60.936L146.466 59.496V57.576ZM174.69 42.216V42.504C174.69 42.952 174.85 43.176 175.17 43.176C175.17 43.112 175.17 43.016 175.17 42.888C175.234 42.696 175.266 42.536 175.266 42.408C175.266 42.024 175.138 41.832 174.882 41.832C174.754 41.832 174.69 41.96 174.69 42.216ZM150.018 55.752C149.762 55.752 149.634 55.944 149.634 56.328C149.634 56.648 149.762 56.808 150.018 56.808C150.338 56.808 150.498 56.648 150.498 56.328C150.498 55.944 150.338 55.752 150.018 55.752ZM148.962 55.272C148.706 55.272 148.578 55.464 148.578 55.848C148.578 56.168 148.706 56.328 148.962 56.328C149.282 56.328 149.442 56.168 149.442 55.848C149.442 55.464 149.282 55.272 148.962 55.272ZM149.73 66.216C149.73 66.152 149.442 66.12 148.866 66.12C148.354 66.12 148.066 66.12 148.002 66.12C147.938 66.12 147.906 66.152 147.906 66.216L148.002 66.408H148.674C148.93 66.408 149.154 66.408 149.346 66.408C149.602 66.408 149.73 66.344 149.73 66.216ZM145.89 62.088C145.89 61.768 145.794 61.608 145.602 61.608C145.474 61.608 145.41 61.768 145.41 62.088C145.41 62.344 145.474 62.472 145.602 62.472C145.794 62.472 145.89 62.344 145.89 62.088ZM174.594 40.2V40.488V41.064V41.256H174.786C174.786 41.128 174.786 41.032 174.786 40.968C174.85 40.904 174.882 40.808 174.882 40.68C174.882 40.488 174.786 40.328 174.594 40.2ZM153.186 66.024H153.378L153.186 65.736V66.024ZM152.13 67.656V67.464H151.938L152.13 67.656ZM191.084 33.96C191.148 33.832 191.18 33.448 191.18 32.808C191.18 32.168 191.244 31.752 191.372 31.56V30.888L191.852 30.12C191.98 29.928 192.012 29.672 191.948 29.352C191.948 29.032 192.012 28.808 192.14 28.68L192.428 27.912C192.492 27.784 192.62 27.432 192.812 26.856C193.004 26.216 193.1 25.832 193.1 25.704L193.388 24.168L193.676 23.4L193.1 22.248C193.228 21.672 193.42 21.032 193.676 20.328C193.932 19.56 194.252 18.856 194.636 18.216C195.02 17.512 195.436 16.936 195.884 16.488C196.396 16.04 196.94 15.816 197.516 15.816L203.18 17.736L204.14 18.792L203.948 19.08L204.332 22.056C204.588 22.056 204.812 22.088 205.004 22.152C205.196 22.152 205.388 22.152 205.58 22.152C205.964 22.152 206.38 22.024 206.828 21.768C207.34 21.448 207.916 21.288 208.556 21.288C208.812 21.288 208.972 21.32 209.036 21.384L209.42 21.576C209.676 21.576 209.932 21.544 210.188 21.48C210.508 21.416 210.86 21.384 211.244 21.384C212.524 21.32 213.644 21.48 214.604 21.864C215.628 22.184 216.428 22.6 217.004 23.112L218.828 24.648L219.212 25.8L219.02 27.912L219.5 28.872L219.212 29.448V30.024H219.02L218.828 31.272L218.156 32.904L216.716 37.608L215.564 38.472H215.852C215.852 38.728 215.628 39.048 215.18 39.432C214.796 39.816 214.316 40.2 213.74 40.584C213.164 40.968 212.588 41.288 212.012 41.544C211.5 41.8 211.116 41.928 210.86 41.928L210.476 41.832L208.94 41.928L208.556 41.832C208.236 41.832 207.98 41.896 207.788 42.024C207.596 42.152 207.34 42.216 207.02 42.216L204.716 41.928H203.084C202.38 41.928 201.74 41.672 201.164 41.16C200.652 40.648 200.236 40.328 199.916 40.2L198.668 53.544C198.732 53.544 198.764 53.576 198.764 53.64C198.764 53.704 198.732 53.736 198.668 53.736C198.604 53.8 198.572 53.864 198.572 53.928L197.036 57.48C197.036 57.608 197.004 57.736 196.94 57.864C196.876 57.992 196.844 58.12 196.844 58.248C197.036 58.248 197.26 58.344 197.516 58.536C197.772 58.792 197.9 58.952 197.9 59.016L196.652 60.648C196.652 60.776 196.684 60.904 196.748 61.032C196.812 61.224 196.844 61.384 196.844 61.512C196.716 61.64 196.652 61.896 196.652 62.28C196.652 62.408 196.652 62.664 196.652 63.048C196.716 63.432 196.748 63.848 196.748 64.296C196.812 64.744 196.876 65.16 196.94 65.544C197.004 65.928 197.036 66.152 197.036 66.216C197.036 66.216 197.1 65.832 197.228 65.064C197.42 64.296 197.612 63.464 197.804 62.568C197.996 61.672 198.188 60.84 198.38 60.072C198.572 59.368 198.732 59.016 198.86 59.016C198.86 60.104 198.796 61.352 198.668 62.76C198.54 64.232 198.476 65.608 198.476 66.888C198.476 67.72 198.508 68.296 198.572 68.616C198.572 68.744 198.348 68.968 197.9 69.288C197.452 69.672 197.164 69.864 197.036 69.864V68.424C196.716 68.616 196.588 68.84 196.652 69.096C196.716 69.352 196.652 69.544 196.46 69.672L193.484 69.192C192.78 69.256 192.3 69.384 192.044 69.576C191.788 69.768 191.66 69.928 191.66 70.056C191.724 70.12 191.756 70.152 191.756 70.152L190.7 70.728C190.316 70.536 189.964 70.312 189.644 70.056C189.324 69.864 189.036 69.672 188.78 69.48C188.524 69.288 188.364 69.128 188.3 69L187.724 66.024V65.928C187.724 65.16 187.788 64.456 187.916 63.816C188.044 63.24 188.108 62.504 188.108 61.608L188.3 61.416L187.916 60.552L188.108 58.248V57.672C188.108 57.352 188.204 57.032 188.396 56.712C188.652 56.392 188.78 56.104 188.78 55.848L188.492 54.216C188.492 53.064 188.524 51.592 188.588 49.8C188.652 48.072 188.908 46.408 189.356 44.808H189.836C189.452 44.552 189.26 44.04 189.26 43.272L190.028 43.56V43.368C189.964 43.304 189.932 43.144 189.932 42.888C190.06 42.76 190.188 42.6 190.316 42.408C190.444 42.216 190.636 41.96 190.892 41.64L190.028 41.256C190.156 41.192 190.252 41.032 190.316 40.776C190.444 40.456 190.604 40.296 190.796 40.296C190.668 40.168 190.572 40.072 190.508 40.008C190.444 39.88 190.412 39.72 190.412 39.528C190.412 39.336 190.444 39.144 190.508 38.952L190.7 38.664C190.636 38.344 190.444 38.12 190.124 37.992C190.316 37.864 190.412 37.608 190.412 37.224C190.412 36.776 190.476 36.552 190.604 36.552H190.7L191.18 36.936C191.308 36.68 191.404 36.584 191.468 36.648C191.596 36.712 191.724 36.648 191.852 36.456C191.852 35.944 191.66 35.592 191.276 35.4C190.956 35.144 190.796 34.728 190.796 34.152L191.084 33.96ZM201.548 36.936H203.564L206.924 37.32H207.212C207.916 37.32 208.428 37.032 208.748 36.456C209.132 35.88 209.452 35.144 209.708 34.248C209.964 33.352 210.188 32.36 210.38 31.272C210.572 30.184 210.86 29.16 211.244 28.2C211.308 27.752 211.34 27.496 211.34 27.432C211.34 27.304 211.34 27.08 211.34 26.76V25.992C210.956 25.864 210.668 25.8 210.476 25.8H209.804C209.804 25.8 209.644 25.832 209.324 25.896C209.004 25.896 208.588 25.96 208.076 26.088C207.564 26.216 207.02 26.376 206.444 26.568C205.868 26.76 205.324 27.016 204.812 27.336C204.684 27.4 204.332 27.752 203.756 28.392C203.244 28.968 202.796 29.352 202.412 29.544L202.028 32.712L201.548 33.192L201.644 33.48L201.26 34.248V36.552L201.548 36.936ZM228.584 33.96C228.648 33.832 228.68 33.448 228.68 32.808C228.68 32.168 228.744 31.752 228.872 31.56V30.888L229.352 30.12C229.48 29.928 229.512 29.672 229.448 29.352C229.448 29.032 229.512 28.808 229.64 28.68L229.928 27.912C229.992 27.784 230.12 27.432 230.312 26.856C230.504 26.216 230.6 25.832 230.6 25.704L230.888 24.168L231.176 23.4L230.6 22.248C230.728 21.672 230.92 21.032 231.176 20.328C231.432 19.56 231.752 18.856 232.136 18.216C232.52 17.512 232.936 16.936 233.384 16.488C233.896 16.04 234.44 15.816 235.016 15.816L240.68 17.736L241.64 18.792L241.448 19.08L241.832 22.056C242.088 22.056 242.312 22.088 242.504 22.152C242.696 22.152 242.888 22.152 243.08 22.152C243.464 22.152 243.88 22.024 244.328 21.768C244.84 21.448 245.416 21.288 246.056 21.288C246.312 21.288 246.472 21.32 246.536 21.384L246.92 21.576C247.176 21.576 247.432 21.544 247.688 21.48C248.008 21.416 248.36 21.384 248.744 21.384C250.024 21.32 251.144 21.48 252.104 21.864C253.128 22.184 253.928 22.6 254.504 23.112L256.328 24.648L256.712 25.8L256.52 27.912L257 28.872L256.712 29.448V30.024H256.52L256.328 31.272L255.656 32.904L254.216 37.608L253.064 38.472H253.352C253.352 38.728 253.128 39.048 252.68 39.432C252.296 39.816 251.816 40.2 251.24 40.584C250.664 40.968 250.088 41.288 249.512 41.544C249 41.8 248.616 41.928 248.36 41.928L247.976 41.832L246.44 41.928L246.056 41.832C245.736 41.832 245.48 41.896 245.288 42.024C245.096 42.152 244.84 42.216 244.52 42.216L242.216 41.928H240.584C239.88 41.928 239.24 41.672 238.664 41.16C238.152 40.648 237.736 40.328 237.416 40.2L236.168 53.544C236.232 53.544 236.264 53.576 236.264 53.64C236.264 53.704 236.232 53.736 236.168 53.736C236.104 53.8 236.072 53.864 236.072 53.928L234.536 57.48C234.536 57.608 234.504 57.736 234.44 57.864C234.376 57.992 234.344 58.12 234.344 58.248C234.536 58.248 234.76 58.344 235.016 58.536C235.272 58.792 235.4 58.952 235.4 59.016L234.152 60.648C234.152 60.776 234.184 60.904 234.248 61.032C234.312 61.224 234.344 61.384 234.344 61.512C234.216 61.64 234.152 61.896 234.152 62.28C234.152 62.408 234.152 62.664 234.152 63.048C234.216 63.432 234.248 63.848 234.248 64.296C234.312 64.744 234.376 65.16 234.44 65.544C234.504 65.928 234.536 66.152 234.536 66.216C234.536 66.216 234.6 65.832 234.728 65.064C234.92 64.296 235.112 63.464 235.304 62.568C235.496 61.672 235.688 60.84 235.88 60.072C236.072 59.368 236.232 59.016 236.36 59.016C236.36 60.104 236.296 61.352 236.168 62.76C236.04 64.232 235.976 65.608 235.976 66.888C235.976 67.72 236.008 68.296 236.072 68.616C236.072 68.744 235.848 68.968 235.4 69.288C234.952 69.672 234.664 69.864 234.536 69.864V68.424C234.216 68.616 234.088 68.84 234.152 69.096C234.216 69.352 234.152 69.544 233.96 69.672L230.984 69.192C230.28 69.256 229.8 69.384 229.544 69.576C229.288 69.768 229.16 69.928 229.16 70.056C229.224 70.12 229.256 70.152 229.256 70.152L228.2 70.728C227.816 70.536 227.464 70.312 227.144 70.056C226.824 69.864 226.536 69.672 226.28 69.48C226.024 69.288 225.864 69.128 225.8 69L225.224 66.024V65.928C225.224 65.16 225.288 64.456 225.416 63.816C225.544 63.24 225.608 62.504 225.608 61.608L225.8 61.416L225.416 60.552L225.608 58.248V57.672C225.608 57.352 225.704 57.032 225.896 56.712C226.152 56.392 226.28 56.104 226.28 55.848L225.992 54.216C225.992 53.064 226.024 51.592 226.088 49.8C226.152 48.072 226.408 46.408 226.856 44.808H227.336C226.952 44.552 226.76 44.04 226.76 43.272L227.528 43.56V43.368C227.464 43.304 227.432 43.144 227.432 42.888C227.56 42.76 227.688 42.6 227.816 42.408C227.944 42.216 228.136 41.96 228.392 41.64L227.528 41.256C227.656 41.192 227.752 41.032 227.816 40.776C227.944 40.456 228.104 40.296 228.296 40.296C228.168 40.168 228.072 40.072 228.008 40.008C227.944 39.88 227.912 39.72 227.912 39.528C227.912 39.336 227.944 39.144 228.008 38.952L228.2 38.664C228.136 38.344 227.944 38.12 227.624 37.992C227.816 37.864 227.912 37.608 227.912 37.224C227.912 36.776 227.976 36.552 228.104 36.552H228.2L228.68 36.936C228.808 36.68 228.904 36.584 228.968 36.648C229.096 36.712 229.224 36.648 229.352 36.456C229.352 35.944 229.16 35.592 228.776 35.4C228.456 35.144 228.296 34.728 228.296 34.152L228.584 33.96ZM239.048 36.936H241.064L244.424 37.32H244.712C245.416 37.32 245.928 37.032 246.248 36.456C246.632 35.88 246.952 35.144 247.208 34.248C247.464 33.352 247.688 32.36 247.88 31.272C248.072 30.184 248.36 29.16 248.744 28.2C248.808 27.752 248.84 27.496 248.84 27.432C248.84 27.304 248.84 27.08 248.84 26.76V25.992C248.456 25.864 248.168 25.8 247.976 25.8H247.304C247.304 25.8 247.144 25.832 246.824 25.896C246.504 25.896 246.088 25.96 245.576 26.088C245.064 26.216 244.52 26.376 243.944 26.568C243.368 26.76 242.824 27.016 242.312 27.336C242.184 27.4 241.832 27.752 241.256 28.392C240.744 28.968 240.296 29.352 239.912 29.544L239.528 32.712L239.048 33.192L239.144 33.48L238.76 34.248V36.552L239.048 36.936Z" fill="#FFF9D7"/>
</svg>
